<?xml version="1.0" encoding="UTF-8"?>
<svg width="178px" height="163px" viewBox="0 0 178 163" version="1.1" xmlns="http://www.w3.org/2000/svg" xmlns:xlink="http://www.w3.org/1999/xlink">
    <!-- Generator: Sketch 52 (66869) - http://www.bohemiancoding.com/sketch -->
    <title>Group</title>
    <desc>Created with Sketch.</desc>
    <defs>
        <linearGradient x1="50%" y1="0%" x2="50%" y2="100%" id="linearGradient-1">
            <stop stop-color="#0097A7" offset="0%"></stop>
            <stop stop-color="#004C54" offset="100%"></stop>
        </linearGradient>
    </defs>
    <g id="Page-1" stroke="none" stroke-width="1" fill="none" fill-rule="evenodd">
        <g id="Group">
            <g id="tick" transform="translate(24.000000, 33.000000)" fill="url(#linearGradient-1)">
                <path d="M130.067,2.934 C128.829252,1.69620164 127.150476,1.00080951 125.4,1.00080951 C123.649524,1.00080951 121.970748,1.69620164 120.733,2.934 L41.661,82.003 L11.267,51.613 C9.59964149,49.9456415 7.16941352,49.2944639 4.89175944,49.9047594 C2.61410536,50.515055 0.835055012,52.2941054 0.224759441,54.5717594 C-0.385536131,56.8494135 0.265641492,59.2796415 1.933,60.947 L36.994,96.003 C38.2317478,97.2407984 39.9105245,97.9361905 41.661,97.9361905 C43.4114755,97.9361905 45.0902522,97.2407984 46.328,96.003 L130.067,12.264 C132.641922,9.68697602 132.641922,5.51102398 130.067,2.934 Z" id="Path_6468"></path>
            </g>
            <g id="Layer-3">
                <circle id="Ellipse_94" fill-opacity="0.100000001" fill="#0097A7" cx="92.724" cy="82.571" r="71.279"></circle>
                <path d="M71.448,32.101 C71.39043,32.1099967 71.3322679,32.1146764 71.274,32.115 C70.6082051,32.1149991 70.0683693,31.5754603 70.0680018,30.9096656 C70.0676344,30.2438708 70.6068744,29.7037365 71.2726689,29.7030007 C71.9384633,29.7022649 72.4788959,30.2412061 72.48,30.907 C72.4829083,31.5070436 72.042142,32.017 71.448,32.101 Z M71.191,30.327 C71.0668642,30.3462581 70.9520297,30.4043756 70.863,30.493 C70.7501307,30.6021627 70.6871963,30.7529881 70.689,30.91 C70.6886806,31.0661306 70.750156,31.2160443 70.86,31.327 C70.9689499,31.4380077 71.1184697,31.4997659 71.274,31.498 C71.5933826,31.4997629 71.8557709,31.2462541 71.865,30.927 C71.8655578,30.6023178 71.6036752,30.3382008 71.279,30.336 L71.191,30.327 Z" id="Path_6161" fill="#FFFFFF" fill-rule="nonzero"></path>
                <path d="M74.813,32.112 C74.3252594,32.1788022 73.846195,31.940933 73.6046029,31.5119964 C73.3630109,31.0830597 73.4079055,30.5500785 73.7178457,30.1675991 C74.0277859,29.7851197 74.5398907,29.6307399 75.0095842,29.7781897 C75.4792776,29.9256396 75.8112679,30.3450045 75.847,30.836 C75.8929587,31.4675199 75.4403334,32.0260788 74.813,32.112 Z M74.556,30.338 C74.245302,30.382301 74.0241603,30.6627973 74.053592,30.9752546 C74.0830237,31.287712 74.3526534,31.5219804 74.6661589,31.5074849 C74.9796644,31.4929894 75.2265263,31.2348401 75.227,30.921 C75.2275578,30.5963178 74.9656752,30.3322008 74.641,30.33 L74.556,30.338 Z" id="Path_6162" fill="#FFFFFF" fill-rule="nonzero"></path>
                <path d="M78.11,32.124 C78.0514375,32.1331241 77.9922687,32.1378041 77.933,32.138 C77.2781662,32.1418766 76.7376646,31.6268941 76.7098906,30.9726381 C76.6821166,30.318382 77.1770288,29.7594449 77.8298353,29.7078104 C78.4826418,29.656176 79.0592697,30.1303586 79.1346957,30.7808456 C79.2101217,31.4313326 78.7573007,32.0248829 78.11,32.124 Z M77.853,30.35 C77.728357,30.3676634 77.613045,30.4260225 77.525,30.516 C77.4144074,30.6259873 77.352226,30.7755259 77.352226,30.9315 C77.352226,31.0874741 77.4144074,31.2370127 77.525,31.347 C77.6334426,31.4591103 77.783027,31.5219791 77.939,31.521 C78.2640196,31.521 78.5275,31.2575196 78.5275,30.9325 C78.5275,30.6074804 78.2640196,30.344 77.939,30.344 L77.853,30.35 Z" id="Path_6163" fill="#FFFFFF" fill-rule="nonzero"></path>
                <path d="M158.247,25.746 C158.247283,27.0077449 157.356317,28.0940174 156.118901,28.3405946 C154.881484,28.5871718 153.642188,27.9253919 153.158804,26.7599134 C152.67542,25.5944348 153.082551,24.2497965 154.13125,23.5482041 C155.179948,22.8466117 156.578193,22.9834306 157.471,23.875 C157.967402,24.3711801 158.246513,25.0441383 158.247,25.746 Z" id="Path_6182" stroke="#707070"></path>
                <path d="M174.99,39.165 C174.99,40.1259755 174.210975,40.905 173.25,40.905 C172.289025,40.905 171.51,40.1259755 171.51,39.165 C171.51,38.2040245 172.289025,37.425 173.25,37.425 C174.210975,37.425 174.99,38.2040245 174.99,39.165 Z" id="Path_6183" stroke="#707070"></path>
                <circle id="Ellipse_95" stroke="#707070" cx="99.747" cy="3.977" r="3.477"></circle>
                <circle id="Ellipse_96" stroke="#707070" cx="22.293" cy="24.738" r="1.825"></circle>
                <circle id="Ellipse_97" stroke="#707070" cx="4.042" cy="49.434" r="3.542"></circle>
                <path d="M16.809,108.379 C16.809,109.210189 16.1351885,109.884 15.304,109.884 C14.4728115,109.884 13.799,109.210189 13.799,108.379 C13.799,107.547811 14.4728115,106.874 15.304,106.874 C16.1351885,106.874 16.809,107.547811 16.809,108.379 Z" id="Path_6184" stroke="#707070"></path>
                <path d="M9.588,123.853 C9.58813278,125.030294 8.75669845,126.043772 7.60208268,126.273737 C6.44746692,126.503702 5.29117426,125.886119 4.84022702,124.798614 C4.38927977,123.711108 4.76924489,122.456498 5.74779036,121.801922 C6.72633582,121.147345 8.03098413,121.275071 8.864,122.107 C9.32718923,122.570051 9.58759655,123.19805 9.588,123.853 Z" id="Path_6185" stroke="#707070"></path>
                <circle id="Ellipse_98" stroke="#707070" cx="170.352" cy="138.011" r="1.503"></circle>
                <circle id="Ellipse_99" fill="#0097A7" cx="139.656" cy="23.081" r="1.411"></circle>
                <circle id="Ellipse_100" fill="#0097A7" cx="144.056" cy="41.543" r="1"></circle>
                <path d="M168.828,82.186 C168.827999,82.8170009 168.316666,83.3286307 167.685666,83.3289981 C167.054665,83.3293655 166.542737,82.8183315 166.542001,82.187331 C166.541265,81.5563305 167.052,81.0441041 167.683,81.043 C167.986489,81.042469 168.277729,81.1626574 168.492516,81.377069 C168.707303,81.5914807 168.828,81.8825107 168.828,82.186 Z" id="Path_6194" fill="#0097A7"></path>
                <path d="M173.768,73.644 C173.767448,73.9353453 173.531013,74.1711831 173.239667,74.1709989 C172.948322,74.1708148 172.712185,73.9346784 172.712001,73.6433327 C172.711817,73.351987 172.947655,73.1155523 173.239,73.115 C173.379381,73.1147339 173.514089,73.1703822 173.613353,73.2696467 C173.712618,73.3689112 173.768266,73.5036191 173.768,73.644 Z" id="Path_6195" fill="#0097A7"></path>
                <circle id="Ellipse_102" fill="#0097A7" cx="52.341" cy="30.09" r="1.057"></circle>
                <path d="M33.963,36.086 C33.963,36.475913 33.646913,36.792 33.257,36.792 C32.867087,36.792 32.551,36.475913 32.551,36.086 C32.551,35.696087 32.867087,35.38 33.257,35.38 C33.646913,35.38 33.963,35.696087 33.963,36.086 Z" id="Path_6199" fill="#0097A7"></path>
                <path d="M15.98,87.562 C15.9789978,88.1490202 15.5636411,88.6536615 14.987768,88.7675208 C14.411895,88.8813801 13.8357465,88.5727753 13.611426,88.0303049 C13.3871055,87.4878346 13.5770318,86.8624451 14.0651347,86.5363327 C14.5532376,86.2102203 15.2036988,86.2741281 15.619,86.689 C15.8503676,86.9205957 15.9802282,87.2346355 15.98,87.562 Z" id="Path_6201" fill="#0097A7"></path>
                <path d="M23.379,112.156 C23.379,112.6183 23.100517,113.03508 22.6734072,113.211994 C22.2462973,113.388909 21.7546727,113.291119 21.4277769,112.964223 C21.1008812,112.637327 21.003091,112.145703 21.1800057,111.718593 C21.3569204,111.291483 21.7736997,111.013 22.236,111.013 C22.8672615,111.013 23.379,111.524739 23.379,112.156 Z" id="Path_6202" fill="#0097A7"></path>
                <path d="M18.213,136.129 C18.2129961,136.75974 17.7020682,137.271259 17.0713287,137.271992 C16.4405892,137.272725 15.9284734,136.762396 15.9270031,136.131657 C15.9255328,135.500919 16.4352639,134.988207 17.066,134.986 C17.3698349,134.984937 17.6615901,135.10489 17.8768101,135.319359 C18.0920301,135.533829 18.2130019,135.825163 18.213,136.129 Z" id="Path_6203" fill="#0097A7"></path>
                <circle id="Ellipse_103" fill="#0097A7" cx="29.661" cy="138.628" r="1"></circle>
                <circle id="Ellipse_104" fill="#0097A7" cx="26.639" cy="151.203" r="1.057"></circle>
                <path d="M136.04,149.856 C136.04,150.294514 135.684514,150.65 135.246,150.65 C134.807486,150.65 134.452,150.294514 134.452,149.856 C134.452,149.417486 134.807486,149.062 135.246,149.062 C135.684514,149.062 136.04,149.417486 136.04,149.856 Z" id="Path_6204" fill="#0097A7"></path>
                <path d="M158.956,154.642 C158.957213,154.963686 158.764207,155.254316 158.467239,155.37798 C158.170271,155.501645 157.828031,155.433905 157.600563,155.206437 C157.373095,154.978969 157.305355,154.636729 157.42902,154.339761 C157.552684,154.042793 157.843314,153.849787 158.165,153.851 C158.601174,153.852645 158.954355,154.205826 158.956,154.642 Z" id="Path_6205" fill="#0097A7"></path>
                <path d="M143.268,161.314 C143.268,162.142427 142.596427,162.814 141.768,162.814 C140.939573,162.814 140.268,162.142427 140.268,161.314 C140.268,160.485573 140.939573,159.814 141.768,159.814 C142.596427,159.814 143.268,160.485573 143.268,161.314 Z" id="Path_6206" fill="#0097A7"></path>
                <path d="M177.639,114.978 C177.626597,115.096086 177.537433,115.191652 177.420489,115.2122 C177.303545,115.232748 177.187144,115.173302 177.135229,115.066517 C177.083314,114.959733 177.108458,114.831472 177.196849,114.752193 C177.28524,114.672914 177.41547,114.661818 177.516,114.725 C177.601888,114.77898 177.649597,114.877112 177.639,114.978 Z" id="Path_6207" fill="#2B3D9A"></path>
            </g>
        </g>
    </g>
</svg>