<svg xmlns="http://www.w3.org/2000/svg" width="66.5" height="57.724" viewBox="0 0 66.5 57.724">
  <g id="Group_1056" data-name="Group 1056" transform="translate(-15.28 -15.764)">
    <g id="tracking" transform="translate(19.79 28.074)">
      <path id="Path_5908" data-name="Path 5908" d="M280,88h5.851v13.652H280Zm0,0" transform="translate(-245.869 -77.273)" fill="rgba(0,151,167,0.22)"/>
      <path id="Path_5909" data-name="Path 5909" d="M303.4,209.752V203.9a3.9,3.9,0,0,0-3.9-3.9H280v9.752Zm0,0" transform="translate(-245.869 -175.621)" fill="#e5f4f6"/>
      <path id="Path_5910" data-name="Path 5910" d="M101.851,56A5.851,5.851,0,0,0,96,61.851c0,3.228,2.623,10.727,5.851,10.727s5.851-7.5,5.851-10.727A5.851,5.851,0,0,0,101.851,56Zm0,7.8a1.95,1.95,0,1,1,1.95-1.95A1.95,1.95,0,0,1,101.851,63.8Zm0,0" transform="translate(-84.298 -49.174)" fill="rgba(0,151,167,0.22)"/>
      <path id="Path_5911" data-name="Path 5911" d="M336.776,98.727a5.851,5.851,0,0,1-5.851-5.851V88H328v13.652h11.7l-.839-2.925Zm0,0" transform="translate(-288.018 -77.273)" fill="rgba(0,151,167,0.11)"/>
      <path id="Path_5912" data-name="Path 5912" d="M27.5,36.28a15.6,15.6,0,0,1-15.6-15.6V8h-.975A2.926,2.926,0,0,0,8,10.925v27.3a2.926,2.926,0,0,0,2.925,2.925h30.23V36.28Zm0,0" transform="translate(-7.025 -7.025)" fill="rgba(0,151,167,0.1)"/>
      <path id="Path_5913" data-name="Path 5913" d="M83.7,237.851A5.851,5.851,0,1,1,77.851,232,5.851,5.851,0,0,1,83.7,237.851Zm0,0" transform="translate(-63.224 -203.72)" fill="#e5f4f6"/>
      <path id="Path_5914" data-name="Path 5914" d="M107.9,265.95a1.95,1.95,0,1,1-1.95-1.95A1.95,1.95,0,0,1,107.9,265.95Zm0,0" transform="translate(-91.323 -231.82)" fill="#f8f6ff"/>
      <path id="Path_5915" data-name="Path 5915" d="M339.7,237.851A5.851,5.851,0,1,1,333.851,232,5.851,5.851,0,0,1,339.7,237.851Zm0,0" transform="translate(-288.018 -203.72)" fill="#e5f4f6"/>
      <path id="Path_5916" data-name="Path 5916" d="M363.9,265.95a1.95,1.95,0,1,1-1.95-1.95A1.95,1.95,0,0,1,363.9,265.95Zm0,0" transform="translate(-316.118 -231.82)" fill="#f8f6ff"/>
      <g id="Group_1047" data-name="Group 1047" transform="translate(0)">
        <path id="Path_5917" data-name="Path 5917" d="M98.925,256a2.926,2.926,0,1,0,2.925,2.926A2.926,2.926,0,0,0,98.925,256Zm0,3.9a.975.975,0,1,1,.975-.975A.975.975,0,0,1,98.925,259.9Zm0,0" transform="translate(-84.298 -224.795)" fill="#0097a7"/>
        <path id="Path_5918" data-name="Path 5918" d="M354.925,256a2.926,2.926,0,1,0,2.925,2.926A2.926,2.926,0,0,0,354.925,256Zm0,3.9a.975.975,0,1,1,.975-.975A.975.975,0,0,1,354.925,259.9Zm0,0" transform="translate(-309.093 -224.795)" fill="#0097a7"/>
        <path id="Path_5919" data-name="Path 5919" d="M353.95,126.826h1.95a.975.975,0,1,0,0-1.95h-1.95v-3.9a.975.975,0,1,0-1.95,0v3.9A1.95,1.95,0,0,0,353.95,126.826Zm0,0" transform="translate(-309.093 -105.373)" fill="#f36d21"/>
        <path id="Path_5920" data-name="Path 5920" d="M94.826,66.528c4.105,0,6.826-8.328,6.826-11.7a6.826,6.826,0,1,0-13.652,0C88,58.2,90.721,66.528,94.826,66.528Zm0-16.578A4.876,4.876,0,0,1,99.7,54.826c0,3.306-2.633,9.752-4.876,9.752s-4.876-6.446-4.876-9.752A4.876,4.876,0,0,1,94.826,49.95Zm0,0" transform="translate(-77.273 -42.149)" fill="#0097a7"/>
        <path id="Path_5921" data-name="Path 5921" d="M125.851,82.925a2.925,2.925,0,1,0-2.925,2.925A2.926,2.926,0,0,0,125.851,82.925Zm-3.9,0a.975.975,0,1,1,.975.975A.975.975,0,0,1,121.95,82.925Zm0,0" transform="translate(-105.373 -70.248)" fill="#0097a7"/>
        <path id="Path_5922" data-name="Path 5922" d="M192,176.975a.975.975,0,0,0,.975.975h3.9a.975.975,0,1,0,0-1.95h-3.9A.975.975,0,0,0,192,176.975Zm0,0" transform="translate(-168.596 -154.546)" fill="#f36d21"/>
        <path id="Path_5923" data-name="Path 5923" d="M52.876,177.95a.975.975,0,1,0,0-1.95h-3.9a.975.975,0,1,0,0,1.95Zm0,0" transform="translate(-42.149 -154.546)" fill="#f36d21"/>
        <path id="Path_5924" data-name="Path 5924" d="M53.634,23.4H52.415L49.129,11.868a2.926,2.926,0,0,0-2.818-2.116h-11.2V4.876A4.876,4.876,0,0,0,30.23,0H3.9A3.9,3.9,0,0,0,0,3.9v27.3a3.9,3.9,0,0,0,3.9,3.9H7.879a6.826,6.826,0,0,0,13.5,0H39.085a6.826,6.826,0,0,0,13.5,0h4.954a.975.975,0,0,0,.975-.975V28.28A4.876,4.876,0,0,0,53.634,23.4Zm-6.387-11,3.14,11h-9.43V11.7h5.354a.975.975,0,0,1,.936.7Zm-8.24-.7V23.4h-3.9V11.7ZM1.95,31.205V3.9A1.95,1.95,0,0,1,3.9,1.95H30.23a2.926,2.926,0,0,1,2.925,2.925v28.28H21.376a6.826,6.826,0,0,0-13.5,0H3.9a1.95,1.95,0,0,1-1.95-1.95Zm12.677,7.8A4.876,4.876,0,1,1,19.5,34.131,4.876,4.876,0,0,1,14.627,39.007Zm31.205,0a4.876,4.876,0,1,1,4.876-4.876A4.876,4.876,0,0,1,45.833,39.007ZM56.56,33.156H52.581a6.826,6.826,0,0,0-13.5,0H35.106v-7.8H53.634A2.926,2.926,0,0,1,56.56,28.28Zm0,0" transform="translate(0)" fill="#0097a7"/>
      </g>
    </g>
    <circle id="Ellipse_67" data-name="Ellipse 67" cx="3.29" cy="3.29" r="3.29" transform="translate(74.449 26.194)" fill="none" stroke="#f36d21" stroke-linecap="round" stroke-miterlimit="10" stroke-width="1.5" opacity="0.78"/>
    <circle id="Ellipse_68" data-name="Ellipse 68" cx="1.88" cy="1.88" r="1.88" transform="translate(16.03 68.977)" fill="none" stroke="#d9d9d9" stroke-linecap="round" stroke-miterlimit="10" stroke-width="1.5" opacity="0.78"/>
    <g id="Group_1135" data-name="Group 1135" transform="translate(21.12 16.264)" opacity="0.84">
      <g id="Group_15" data-name="Group 15" transform="translate(2.391)">
        <line id="Line_7" data-name="Line 7" y1="4.719" fill="none" stroke="rgba(246,145,92,0.54)" stroke-linecap="round" stroke-miterlimit="10" stroke-width="1"/>
      </g>
      <g id="Group_16" data-name="Group 16" transform="translate(0 2.359)">
        <line id="Line_8" data-name="Line 8" x1="4.783" fill="none" stroke="rgba(246,145,92,0.54)" stroke-linecap="round" stroke-miterlimit="10" stroke-width="1"/>
      </g>
    </g>
  </g>
</svg>
