<svg xmlns="http://www.w3.org/2000/svg" width="74.5" height="57.486" viewBox="0 0 74.5 57.486">
  <g id="Group_1054" data-name="Group 1054" transform="translate(-14.911 -18.066)">
    <g id="tag_1_" data-name="tag (1)" transform="translate(31.512 20.149)">
      <path id="Path_5847" data-name="Path 5847" d="M34.765,37.416,24.673,25.977a3.758,3.758,0,0,0-5.633,0L8.944,37.416A3.757,3.757,0,0,0,8,39.9V68.949a7.387,7.387,0,0,0,7.387,7.387H28.318A7.387,7.387,0,0,0,35.7,68.949V39.9a3.756,3.756,0,0,0-.94-2.486ZM21.854,41.248a3.694,3.694,0,1,1,3.694-3.694A3.694,3.694,0,0,1,21.854,41.248Zm0,0" transform="translate(-7.08 -21.856)" fill="rgba(192,206,230,0)"/>
      <path id="Path_5848" data-name="Path 5848" d="M253.9,124.939l-1-1.728A17.552,17.552,0,0,1,248,127.657v2.152c.064-.036.128-.068.191-.1a20.52,20.52,0,0,0,5.7-4.767Zm0,0" transform="translate(-219.379 -108.99)" fill="rgba(0,151,167,0.11)"/>
      <path id="Path_5849" data-name="Path 5849" d="M225.444,152.012H225.4a3.688,3.688,0,0,1,.045.5v29.05a7.368,7.368,0,0,1-2.944,5.892,7.366,7.366,0,0,0,6.522-.419l1.211-.7Zm0,0" transform="translate(-196.819 -134.467)" fill="rgba(0,151,167,0.22)"/>
      <path id="Path_5850" data-name="Path 5850" d="M89.872,37.416,79.779,25.977a3.758,3.758,0,0,0-5.633,0L70.3,30.336A19.2,19.2,0,0,1,87.118,49.389V75.343a7.375,7.375,0,0,0,3.694-6.393V39.9a3.756,3.756,0,0,0-.94-2.486Zm0,0" transform="translate(-62.187 -21.856)" fill="rgba(0,151,167,0.06)"/>
      <path id="Path_5851" data-name="Path 5851" d="M34.782,137.178a22.161,22.161,0,0,1-22.161-22.161V98.707l-3.677,4.167A3.757,3.757,0,0,0,8,105.36v29.048a7.387,7.387,0,0,0,7.387,7.387H28.318a7.387,7.387,0,0,0,6.845-4.617Zm0,0" transform="translate(-7.081 -87.314)" fill="rgba(0,151,167,0.22)"/>
      <path id="Path_5852" data-name="Path 5852" d="M124.186,167.122a4.466,4.466,0,0,1-2.3-1.033,3.4,3.4,0,0,1-2.186.083c.041.082.065.172.111.251a5.526,5.526,0,0,0,4.056,2.518,10.265,10.265,0,0,0,1.754.144,15.436,15.436,0,0,0,4.211-.647q-.294-.889-.669-1.736a11.776,11.776,0,0,1-4.981.418Zm0,0" transform="translate(-105.887 -146.919)" fill="rgba(0,151,167,0.11)"/>
      <path id="Path_5853" data-name="Path 5853" d="M207,150.973c-.222.139-.445.277-.676.413-.3.175-.6.335-.908.491a19.372,19.372,0,0,1-3.7,1.454q.375.848.669,1.736a21.345,21.345,0,0,0,3.878-1.548c.265-.137.53-.277.794-.43v-1.5A3.711,3.711,0,0,0,207,150.973Zm0,0" transform="translate(-178.43 -133.548)" fill="rgba(0,151,167,0.11)"/>
      <g id="Group_1043" data-name="Group 1043" transform="translate(0 0)">
        <path id="Path_5854" data-name="Path 5854" d="M99.7,251.705a1.847,1.847,0,0,1,1.847,1.847.923.923,0,1,0,1.847,0,3.693,3.693,0,0,0-2.77-3.562v-1.055a.923.923,0,0,0-1.847,0v1.055a3.686,3.686,0,0,0,.923,7.256,1.847,1.847,0,1,1-1.847,1.847.923.923,0,1,0-1.847,0,3.694,3.694,0,0,0,2.77,3.562v1.055a.923.923,0,0,0,1.847,0v-1.052A3.686,3.686,0,0,0,99.7,255.4a1.847,1.847,0,0,1,0-3.693Zm0,0" transform="translate(-84.923 -219.386)" fill="#0097a7"/>
        <path id="Path_5855" data-name="Path 5855" d="M102.468,200.012h-5.54a.923.923,0,1,0,0,1.847h5.54a.923.923,0,0,0,0-1.847Zm0,0" transform="translate(-84.923 -176.926)" fill="#f36d21"/>
        <path id="Path_5856" data-name="Path 5856" d="M102.468,424.012h-5.54a.923.923,0,1,0,0,1.847h5.54a.923.923,0,1,0,0-1.847Zm0,0" transform="translate(-84.923 -375.072)" fill="#f36d21"/>
        <path id="Path_5857" data-name="Path 5857" d="M46.9,35.552,33.35,12.075a15.6,15.6,0,0,0,2.2-2.74c1.539-2.493,1.814-4.86.774-6.662-2.071-3.588-8.611-3.559-14.889.065a22.846,22.846,0,0,0-2.4,1.619l-.745-.846a4.678,4.678,0,0,0-7.018,0L1.175,14.95A4.677,4.677,0,0,0,0,18.047V47.095a8.32,8.32,0,0,0,8.31,8.31H21.242A8.262,8.262,0,0,0,25.83,54.02a8.185,8.185,0,0,0,6.838-.647l11.2-6.464A8.31,8.31,0,0,0,46.9,35.552ZM27.9,13.933c-.092.054-.184.1-.277.151l-5.74-6.506,7.352,2.471a2.831,2.831,0,0,1,1.551,1.27l.236.407A20.561,20.561,0,0,1,27.9,13.933Zm-5.54-9.595c5.2-3,10.865-3.345,12.366-.739.686,1.187.421,2.881-.745,4.769a13.283,13.283,0,0,1-1.587,2.046L32.38,10.4a4.681,4.681,0,0,0-2.563-2.1l-8.956-3.01q.722-.506,1.5-.95ZM8.314,53.558a6.471,6.471,0,0,1-6.464-6.464V18.047a2.834,2.834,0,0,1,.709-1.876L12.654,4.734a2.829,2.829,0,0,1,4.248,0L25.908,14.94A15.285,15.285,0,0,1,19.323,16.4a4.569,4.569,0,0,0,.072-.7,4.445,4.445,0,0,0-5.163-4.561h-.026A4.606,4.606,0,1,0,18.65,18.2a10.948,10.948,0,0,0,1.094.06,17.809,17.809,0,0,0,7.415-1.867,2.823,2.823,0,0,1,.546,1.658V47.095a6.471,6.471,0,0,1-6.464,6.464Zm9.193-37.452a3.356,3.356,0,0,1-1.977-1.429,2.965,2.965,0,0,1-.351-1.7,2.678,2.678,0,0,1,2.328,3.133Zm-4.155-2.763a4.683,4.683,0,0,0,.584,2.257,5,5,0,0,0,2.689,2.155,2.76,2.76,0,1,1-3.274-4.412Zm32.6,28.039a6.419,6.419,0,0,1-3.011,3.924l-11.2,6.464a6.39,6.39,0,0,1-4.247.78,8.264,8.264,0,0,0,2.054-5.456V18.047a4.667,4.667,0,0,0-.739-2.509h.007a22.555,22.555,0,0,0,3.132-2.184L45.306,36.476a6.42,6.42,0,0,1,.646,4.907Zm0,0" transform="translate(-0.004 -0.001)" fill="#0097a7"/>
        <path id="Path_5858" data-name="Path 5858" d="M272.928,283.984a.923.923,0,0,1-.462-1.723l6.4-3.694a.923.923,0,1,1,.923,1.6l-6.4,3.693A.916.916,0,0,1,272.928,283.984Zm0,0" transform="translate(-240.609 -246.302)" fill="#f36d21"/>
        <path id="Path_5859" data-name="Path 5859" d="M283.08,326.475a.923.923,0,0,1-.462-1.723l8-4.617a.924.924,0,1,1,.923,1.6l-8,4.617A.926.926,0,0,1,283.08,326.475Zm0,0" transform="translate(-249.59 -283.075)" fill="#0097a7"/>
        <path id="Path_5860" data-name="Path 5860" d="M280.65,247.5a.924.924,0,0,1-.462-1.723l3.2-1.847a.923.923,0,1,1,.923,1.6l-3.2,1.847A.924.924,0,0,1,280.65,247.5Zm0,0" transform="translate(-247.441 -215.66)" fill="#0097a7"/>
      </g>
    </g>
    <g id="Group_1061" data-name="Group 1061" transform="translate(16.663 19.338)" opacity="0.53">
      <g id="Group_15" data-name="Group 15" transform="translate(3.828)">
        <line id="Line_7" data-name="Line 7" y1="7.554" fill="none" stroke="#f6915c" stroke-linecap="round" stroke-miterlimit="10" stroke-width="2.545"/>
      </g>
      <g id="Group_16" data-name="Group 16" transform="translate(0 3.777)">
        <line id="Line_8" data-name="Line 8" x1="7.657" fill="none" stroke="#f6915c" stroke-linecap="round" stroke-miterlimit="10" stroke-width="2.579"/>
      </g>
    </g>
    <ellipse id="Ellipse_64" data-name="Ellipse 64" cx="2.76" cy="2.723" rx="2.76" ry="2.723" transform="translate(83.141 32.735)" fill="none" stroke="rgba(0,151,167,0.22)" stroke-linecap="round" stroke-miterlimit="10" stroke-width="1.5" opacity="0.78"/>
    <ellipse id="Ellipse_65" data-name="Ellipse 65" cx="2.76" cy="2.723" rx="2.76" ry="2.723" transform="translate(15.661 59.801)" fill="none" stroke="#e9e9e9" stroke-linecap="round" stroke-miterlimit="10" stroke-width="1.5" opacity="0.78"/>
  </g>
</svg>
