<svg xmlns="http://www.w3.org/2000/svg" width="70.48" height="60.437" viewBox="0 0 70.48 60.437">
  <g id="Group_1055" data-name="Group 1055" transform="translate(-14.371 -16.111)">
    <g id="printer" transform="translate(25.881 24.934)">
      <path id="Path_5861" data-name="Path 5861" d="M51.29,200H11.207A3.207,3.207,0,0,0,8,203.207v13.628a3.207,3.207,0,0,0,3.207,3.207h6.91l2.71-3.207H41.67l2.958,3.207H51.29a3.207,3.207,0,0,0,3.207-3.207V203.207A3.207,3.207,0,0,0,51.29,200Zm-.8,8.818a.8.8,0,0,1-.8.8H12.81a.8.8,0,0,1-.8-.8v-4.81a.8.8,0,0,1,.8-.8H49.687a.8.8,0,0,1,.8.8Zm0,0" transform="translate(-7.198 -179.958)" fill="rgba(228,241,249,0.38)"/>
      <path id="Path_5862" data-name="Path 5862" d="M140.78,370.405,138.559,368H117.716l-2.036,2.405Zm0,0" transform="translate(-104.088 -331.123)" fill="#e4f1f9"/>
      <path id="Path_5863" data-name="Path 5863" d="M85.612,339.207h20.843l2.958,3.207h2.654v-4.008a2.4,2.4,0,0,0-2.4-2.405H81.6a1.6,1.6,0,0,0-1.6,1.6v4.81h2.9Zm0,0" transform="translate(-71.983 -302.33)" fill="rgba(0,151,167,0.22)"/>
      <path id="Path_5864" data-name="Path 5864" d="M274.7,8h-.8l-.673,5.387a.8.8,0,0,0,.9.9l5.387-.673v-.8A4.81,4.81,0,0,0,274.7,8Zm0,0" transform="translate(-245.836 -7.198)" fill="rgba(0,151,167,0.1)"/>
      <path id="Path_5865" data-name="Path 5865" d="M162.438,24.835A16.033,16.033,0,0,1,146.405,8.8V8h-1.6a.8.8,0,0,0-.8.8V27.24h19.24v-2.4Zm0,0" transform="translate(-129.57 -7.198)" fill="#e4f1f9"/>
      <path id="Path_5866" data-name="Path 5866" d="M97.6,56h3.207v9.62H96V57.6A1.6,1.6,0,0,1,97.6,56Zm0,0" transform="translate(-86.38 -50.388)" fill="rgba(0,151,167,0.22)"/>
      <path id="Path_5867" data-name="Path 5867" d="M49.6,152H57.62v4.81H48V153.6A1.6,1.6,0,0,1,49.6,152Zm0,0" transform="translate(-43.19 -136.768)" fill="rgba(0,151,167,0.22)"/>
      <path id="Path_5868" data-name="Path 5868" d="M336,56h3.207a1.6,1.6,0,0,1,1.6,1.6V65.62H336Zm0,0" transform="translate(-302.33 -50.388)" fill="rgba(0,151,167,0.22)"/>
      <path id="Path_5869" data-name="Path 5869" d="M336,152h8.017a1.6,1.6,0,0,1,1.6,1.6v3.207H336Zm0,0" transform="translate(-302.33 -136.768)" fill="rgba(0,151,167,0.22)"/>
      <path id="Path_5870" data-name="Path 5870" d="M85.678,232H48.8a.8.8,0,0,0-.8.8v.8H84.075a.8.8,0,0,1,.8.8v4.008h.8a.8.8,0,0,0,.8-.8V232.8A.8.8,0,0,0,85.678,232Zm0,0" transform="translate(-43.19 -208.752)" fill="#e4f1f9"/>
      <path id="Path_5871" data-name="Path 5871" d="M49.643,232H48.8a.8.8,0,0,0-.8.8v4.81a.8.8,0,0,0,.8.8h4.073A9.621,9.621,0,0,1,49.643,232Zm0,0" transform="translate(-43.19 -208.752)" fill="#e4f1f9"/>
      <path id="Path_5872" data-name="Path 5872" d="M288,8a4.81,4.81,0,0,1,4.81,4.81H288.8a.8.8,0,0,1-.8-.8Zm0,0" transform="translate(-259.14 -7.198)" fill="rgba(0,151,167,0.1)"/>
      <g id="Group_1044" data-name="Group 1044">
        <path id="Path_5873" data-name="Path 5873" d="M44.092,19.24v-2.4a2.4,2.4,0,0,0-2.4-2.4h-2.4V7.215a2.4,2.4,0,0,0-2.4-2.4H34.407A5.611,5.611,0,0,0,28.86,0H15.232a1.6,1.6,0,0,0-1.6,1.6V4.81h-2.4a2.4,2.4,0,0,0-2.4,2.4V14.43h-2.4a2.4,2.4,0,0,0-2.4,2.4v2.4A4.009,4.009,0,0,0,0,23.248V36.877a4.009,4.009,0,0,0,4.008,4.008H9.187L4.2,46.777A.8.8,0,0,0,4.81,48.1H44.092a.8.8,0,0,0,.585-1.347l-5.4-5.868h4.81A4.009,4.009,0,0,0,48.1,36.877V23.248a4.009,4.009,0,0,0-4.008-4.008Zm-1.6-2.4v2.4H34.472V16.033h7.215A.8.8,0,0,1,42.488,16.835Zm-4.81-9.62V14.43H34.472V6.413h2.4A.8.8,0,0,1,37.678,7.215Zm-4.89-2.4H29.662V1.684A4.008,4.008,0,0,1,32.788,4.81ZM15.232,1.6H28.058V4.81a1.6,1.6,0,0,0,1.6,1.6h3.207V19.24H15.232Zm-4.81,5.612a.8.8,0,0,1,.8-.8h2.4V14.43H10.422Zm-4.81,9.62a.8.8,0,0,1,.8-.8h7.215V19.24H5.612ZM6.542,46.5,11.528,40.6,14,37.678H34.119L42.264,46.5Zm27.93-10.422H13.628a.8.8,0,0,0-.609.281l-2.477,2.926H8.818V35.273a.8.8,0,0,1,.8-.8H37.678a1.6,1.6,0,0,1,1.6,1.6v3.207h-1.5l-2.726-2.95a.8.8,0,0,0-.585-.256Zm12.025.8a2.4,2.4,0,0,1-2.4,2.4H40.885V36.075a3.207,3.207,0,0,0-3.207-3.207H9.62a2.4,2.4,0,0,0-2.4,2.4v4.008H4.008a2.4,2.4,0,0,1-2.4-2.4V23.248a2.4,2.4,0,0,1,2.4-2.4H44.092a2.4,2.4,0,0,1,2.4,2.4Zm0,0" fill="#0097a7"/>
        <path id="Path_5874" data-name="Path 5874" d="M142.43,432H128.8a.8.8,0,1,0,0,1.6H142.43a.8.8,0,0,0,0-1.6Zm0,0" transform="translate(-115.173 -388.71)" fill="#f36d21"/>
        <path id="Path_5875" data-name="Path 5875" d="M312,432.8a.8.8,0,0,0,.8.8h3.207a.8.8,0,1,0,0-1.6H312.8A.8.8,0,0,0,312,432.8Zm0,0" transform="translate(-280.735 -388.71)" fill="#0097a7"/>
        <path id="Path_5876" data-name="Path 5876" d="M144.8,401.6h4.008a.8.8,0,0,0,0-1.6H144.8a.8.8,0,1,0,0,1.6Zm0,0" transform="translate(-129.57 -359.917)" fill="#0097a7"/>
        <path id="Path_5877" data-name="Path 5877" d="M224.8,401.6h8.818a.8.8,0,1,0,0-1.6H224.8a.8.8,0,0,0,0,1.6Zm0,0" transform="translate(-201.553 -359.917)" fill="#f36d21"/>
        <path id="Path_5878" data-name="Path 5878" d="M78.48,224H41.6a1.6,1.6,0,0,0-1.6,1.6v4.81a1.6,1.6,0,0,0,1.6,1.6H78.48a1.6,1.6,0,0,0,1.6-1.6V225.6A1.6,1.6,0,0,0,78.48,224ZM41.6,230.413V225.6H78.48v4.81Zm0,0" transform="translate(-35.992 -201.553)" fill="#0097a7"/>
        <path id="Path_5879" data-name="Path 5879" d="M86.413,256H80.8a.8.8,0,1,0,0,1.6h5.612a.8.8,0,0,0,0-1.6Zm0,0" transform="translate(-71.983 -230.347)" fill="#f36d21"/>
        <path id="Path_5880" data-name="Path 5880" d="M171.207,256h-2.4a.8.8,0,0,0,0,1.6h2.4a.8.8,0,1,0,0-1.6Zm0,0" transform="translate(-151.165 -230.347)" fill="#0097a7"/>
        <path id="Path_5881" data-name="Path 5881" d="M300.008,256H296.8a.8.8,0,1,0,0,1.6h3.207a.8.8,0,1,0,0-1.6Zm0,0" transform="translate(-266.338 -230.347)" fill="#0097a7"/>
        <path id="Path_5882" data-name="Path 5882" d="M361.6,256.8a.8.8,0,1,1-.8-.8A.8.8,0,0,1,361.6,256.8Zm0,0" transform="translate(-323.925 -230.347)" fill="#f36d21"/>
        <path id="Path_5883" data-name="Path 5883" d="M393.6,256.8a.8.8,0,1,1-.8-.8A.8.8,0,0,1,393.6,256.8Zm0,0" transform="translate(-352.718 -230.347)" fill="#f36d21"/>
      </g>
    </g>
    <g id="Group_1062" data-name="Group 1062" transform="translate(15.661 24.934)">
      <g id="Group_15" data-name="Group 15" transform="translate(3.651)">
        <line id="Line_7" data-name="Line 7" y1="7.204" fill="none" stroke="#d9d9d9" stroke-linecap="round" stroke-miterlimit="10" stroke-width="2.545"/>
      </g>
      <g id="Group_16" data-name="Group 16" transform="translate(0 3.602)">
        <line id="Line_8" data-name="Line 8" x1="7.302" fill="none" stroke="#d9d9d9" stroke-linecap="round" stroke-miterlimit="10" stroke-width="2.579"/>
      </g>
    </g>
    <g id="Group_1063" data-name="Group 1063" transform="translate(78.755 70.519)">
      <g id="Group_15-2" data-name="Group 15" transform="translate(2.549)">
        <line id="Line_7-2" data-name="Line 7" y1="5.029" fill="none" stroke="rgba(0,151,167,0.22)" stroke-linecap="round" stroke-miterlimit="10" stroke-width="2"/>
      </g>
      <g id="Group_16-2" data-name="Group 16" transform="translate(0 2.514)">
        <line id="Line_8-2" data-name="Line 8" x1="5.097" fill="none" stroke="rgba(0,151,167,0.22)" stroke-linecap="round" stroke-miterlimit="10" stroke-width="2"/>
      </g>
    </g>
    <ellipse id="Ellipse_66" data-name="Ellipse 66" cx="2.632" cy="2.597" rx="2.632" ry="2.597" transform="translate(68.717 16.861)" fill="none" stroke="#f6915c" stroke-linecap="round" stroke-miterlimit="10" stroke-width="1.5" opacity="0.78"/>
  </g>
</svg>
