<svg xmlns="http://www.w3.org/2000/svg" xmlns:xlink="http://www.w3.org/1999/xlink" width="484.5" height="251" viewBox="0 0 484.5 251">
  <defs>
    <linearGradient id="linear-gradient" x1="0.091" y1="0.081" x2="1.069" y2="1.037" gradientUnits="objectBoundingBox">
      <stop offset="0" stop-color="#0e1038"/>
      <stop offset="0.717" stop-color="#0097a7"/>
      <stop offset="1" stop-color="#0097a7"/>
    </linearGradient>
    <filter id="Rectangle_253" x="0.5" y="0" width="484" height="251" filterUnits="userSpaceOnUse">
      <feOffset dx="2" dy="2" input="SourceAlpha"/>
      <feGaussianBlur stdDeviation="6.5" result="blur"/>
      <feFlood flood-opacity="0.161"/>
      <feComposite operator="in" in2="blur"/>
      <feComposite in="SourceGraphic"/>
    </filter>
    <linearGradient id="linear-gradient-2" x1="0.5" x2="0.5" y2="1" gradientUnits="objectBoundingBox">
      <stop offset="0" stop-color="#fff"/>
      <stop offset="1" stop-color="#2a2e91"/>
    </linearGradient>
    <filter id="Path_5737" x="0" y="47.093" width="481" height="143.315" filterUnits="userSpaceOnUse">
      <feOffset dy="3" input="SourceAlpha"/>
      <feGaussianBlur stdDeviation="6" result="blur-2"/>
      <feFlood flood-opacity="0.278"/>
      <feComposite operator="in" in2="blur-2"/>
      <feComposite in="SourceGraphic"/>
    </filter>
    <filter id="Rectangle_278" x="26" y="170.5" width="159" height="54" filterUnits="userSpaceOnUse">
      <feOffset dy="3" input="SourceAlpha"/>
      <feGaussianBlur stdDeviation="3" result="blur-3"/>
      <feFlood flood-opacity="0.161"/>
      <feComposite operator="in" in2="blur-3"/>
      <feComposite in="SourceGraphic"/>
    </filter>
  </defs>
  <g id="Group_911" data-name="Group 911" transform="translate(-779 -327.5)">
    <g transform="matrix(1, 0, 0, 1, 779, 327.5)" filter="url(#Rectangle_253)">
      <rect id="Rectangle_253-2" data-name="Rectangle 253" width="445" height="212" rx="9" transform="translate(18 17.5)" fill="url(#linear-gradient)"/>
    </g>
    <g transform="matrix(1, 0, 0, 1, 779, 327.5)" filter="url(#Path_5737)">
      <path id="Path_5737-2" data-name="Path 5737" d="M4301.59,1242.408s-40.5-23.628-165.318,37.163-279.683,33.016-279.683,33.016v-64.459s89.967,40.957,235.765,84.373,209.235-38.391,209.235-38.391Z" transform="translate(-3838.59 -1175.79)" opacity="0.22" fill="url(#linear-gradient-2)"/>
    </g>
    <text id="رصيدك_الحالي_هو" data-name="رصيدك الحالي هو" transform="translate(1071 422)" fill="#f8f6ff" font-size="14" font-family="Cairo-SemiBold, Cairo" font-weight="600"><tspan x="-103.054" y="0">رصيدك الحالي هو</tspan></text>
    <g id="Group_909" data-name="Group 909" transform="translate(941.968 428)">
      <text id="_5721" data-name="5721" transform="translate(156.032 43)" fill="#fff" font-size="33" font-family="Cairo-Bold, Cairo" font-weight="700"><tspan x="-73.92" y="0">5721</tspan></text>
      <text id="ريال_سعودي" data-name="ريال سعودي" transform="translate(77.032 43)" fill="#fff" font-size="14" font-family="Cairo-Bold, Cairo" font-weight="700"><tspan x="-77" y="0">ريال سعودي</tspan></text>
    </g>
    <g transform="matrix(1, 0, 0, 1, 779, 327.5)" filter="url(#Rectangle_278)">
      <rect id="Rectangle_278-2" data-name="Rectangle 278" width="141" height="36" rx="4" transform="translate(35 176.5)" fill="#fff"/>
    </g>
    <text id="سحب_رصيد_المحفظة" data-name="سحب رصيد المحفظة" transform="translate(940 527)" fill="#0097a7" font-size="12" font-family="Cairo-Bold, Cairo" font-weight="700"><tspan x="-109.956" y="0">سحب رصيد المحفظة</tspan></text>
  </g>
</svg>
